<svg xmlns="http://www.w3.org/2000/svg" xml:space="preserve" viewBox="0 0 3008 980">
  <path fill="#009697" d="M519.073 16.952c20.02 2.322 40.11 4.165 60.035 7.124 14.795 2.197 29.506 5.327 44.009 9.009 11.148 2.83 21.913 7.17 32.849 10.836 6.32 2.118 12.742 3.977 18.93 6.428 5.312 2.104 10.335 4.931 15.525 7.354 11.72 5.47 23.852 10.198 35.102 16.504 13.595 7.62 26.599 16.336 39.578 25 9.774 6.523 19.162 13.634 28.61 20.634 4.844 3.589 9.638 7.292 14.112 11.323 9.679 8.723 19.78 17.103 28.538 26.692 13.868 15.185 26.768 31.253 40.107 46.923 1.178 1.384 2.563 2.593 4.415 4.397 3.381.617 6.2.81 9.019.811 696.029.013 1392.057.013 2088.087.014 1.832 0 3.72-.248 5.476.121.952.2 1.681 1.46 2.51 2.243-6.156 15.971-12.28 31.955-18.478 47.91-7.56 19.463-15.132 38.922-22.793 58.345-7.764 19.686-15.663 39.317-23.466 58.987-9.058 22.834-18.13 45.662-27.094 68.532-7.542 19.239-14.69 38.637-22.581 57.73-1.906 4.612-.123 7.757 1.306 11.378 6.74 17.085 13.466 34.177 20.375 51.194 8.853 21.809 17.95 43.52 26.803 65.328 6.854 16.888 13.395 33.902 20.258 50.786 8.321 20.47 16.915 40.83 25.24 61.297a2179.337 2179.337 0 0 1 20.364 51.984c-2.317 1.25-4.574 2.107-6.831 2.108-703.504.058-1407.008.056-2110.512.093-2.241 0-4.482.559-6.723.856-11.818 12.479-23.223 25.383-35.549 37.337-18.51 17.95-38.475 34.217-59.781 48.83-21.298 14.607-43.773 27.067-66.998 38.295-24.57 11.877-50.124 21.223-76.374 28.307-19.194 5.179-38.877 8.704-58.49 12.108-11.317 1.965-22.912 2.657-34.414 3.149-16.92.723-33.887 1.378-50.8.897-14.943-.425-29.95-1.718-44.732-3.936-19.703-2.957-39.38-6.48-58.77-11.037-23.715-5.575-46.808-13.453-68.909-23.811-16.153-7.57-32.415-15.103-47.795-24.082-16.862-9.844-33.306-20.609-48.936-32.304-15.145-11.332-29.518-23.832-43.31-36.798-11.386-10.705-21.458-22.813-32.06-34.347-15.312-16.656-28.285-35.081-40.29-54.18-6.358-10.117-12.613-20.372-17.915-31.061-8.159-16.448-15.775-33.185-23.039-50.05-9.112-21.157-15.622-43.235-20.536-65.698-3.376-15.433-5.802-31.098-8.048-46.746-1.564-10.893-2.527-21.914-3-32.91-.713-16.587-1.363-33.22-.906-49.802.362-13.106 2.034-26.22 3.84-39.23a942.625 942.625 0 0 1 8.002-48.28c1.644-8.555 4.144-17 6.917-25.274 6.096-18.193 11.91-36.533 19.178-54.264 5.817-14.19 13.08-27.872 20.665-41.233 8.763-15.434 18.19-30.531 28.074-45.275 6.935-10.343 14.66-20.25 22.848-29.639 12.35-14.163 24.946-28.18 38.327-41.357 10.202-10.047 21.52-19.03 32.825-27.87 11.854-9.27 24.015-18.208 36.544-26.537 10.465-6.957 21.454-13.205 32.578-19.073 12.879-6.795 25.878-13.515 39.336-19.02a534.67 534.67 0 0 1 48.241-17.084c16.41-4.94 33.118-9.086 49.918-12.475 13.297-2.683 26.914-3.84 40.42-5.394 8.334-.959 16.728-1.392 26.026-2.016 15.335.003 29.74-.039 44.143-.08M2033.5 249H907.474c92.192 173.095 87.427 342.883-14.817 509.67h2035.43c-4.891-12.13-9.586-23.835-14.328-35.52-28.51-70.261-57.054-140.509-85.445-210.818-.884-2.19-1.022-5.311-.175-7.477 29.384-75.1 58.932-150.136 88.448-225.185 3.937-10.01 7.829-20.038 11.98-30.67H2033.5M240.122 630.5v50.502h33.675V573.86c.986.723 1.29.863 1.479 1.096 28.131 34.564 82.28 41.061 120.641 11.726 49.623-37.947 51.894-117.036 4.51-158.428-37.91-33.116-94.845-28.346-124.556 7.327-.447.538-1.13.88-2.384 1.827v-27.23h-33.365V630.5m427.275-202.617c-2.856 2.544-5.897 4.91-8.54 7.658-29.36 30.51-36.5 77.554-17.586 115.367 18.662 37.311 59.096 58.79 101.434 53.886 69.507-8.052 104.883-76.414 81.712-136.359-25.952-67.14-108.346-79.44-157.02-40.552m-174.508 75.769c6.564 3.17 12.945 6.83 19.738 9.393 9.778 3.691 20.026 6.154 29.748 9.968 6.727 2.64 13.61 5.797 19.18 10.272 11.085 8.906 10.559 26.292-.88 34.752-4.505 3.331-10.235 5.847-15.747 6.83-24.745 4.418-44.435-5.72-57.653-29.135l-26.674 14.84c4.51 12.19 11.798 21.941 22.13 29.146 22.895 15.966 48.48 18.838 74.948 12.963 26.61-5.906 43.067-24.337 44.732-50.566 1.45-22.844-7.743-41.514-32.24-52.87-12.737-5.905-26.612-9.312-39.798-14.307-6.617-2.508-13.568-5.095-19.105-9.305-13.71-10.425-11.82-28.699 3.567-36.38 15.052-7.516 30.13-6.26 44.098 2.873 5.596 3.658 10.158 8.896 15.606 13.788l23.54-16.188c-3.114-7.114-10.776-15.743-18.91-21.173-19.14-12.774-40.257-14.801-62.262-10.878-15.006 2.676-28.31 8.979-37.85 21.309-17.786 22.986-11.7 56.383 13.832 74.668M159.125 545.5v55.696h34.183V410.022h-34.183V545.5m735.093 52.214c5.542-5.62 8.058-12.304 7.837-20.26-.4-14.355-13.6-26.485-27.834-25.263-15.792 1.355-27.296 15.396-24.829 30.207 3.767 22.61 29.644 29.563 44.826 15.316M153.063 345.019c-.022 1.332-.07 2.664-.064 3.996.055 10.764 7.228 19.85 17.765 22.52 10.566 2.676 21.367-2.004 26.328-11.41 5.174-9.808 3.036-22.105-5.078-29.197-13.542-11.838-33.23-5.116-38.95 14.09z"/>
  <path fill="#58B2B3" d="M862.326 798.938c1.758-.342 3.999-.9 6.24-.9 703.504-.038 1407.008-.036 2110.512-.094 2.257 0 4.514-.859 6.845-1.737.462.483.85 1.387 1.452 2.791H864.309c-.5 0-1-.01-1.983-.06z"/>
  <path fill="#56B1B4" d="M2986.36 212.153c-1.214-.57-1.943-1.83-2.895-2.03-1.756-.37-3.644-.122-5.476-.122-696.03-.001-1392.058 0-2088.087-.014-2.82 0-5.638-.194-8.763-.599 1.693-.33 3.692-.384 5.69-.384C1583.892 209 2280.954 209 2978.016 209c2.167 0 4.336.077 6.499-.011 2.267-.092 3.124.73 1.847 3.164z"/>
  <path fill="#9AD1CF" d="M518.88 16.555c-14.21.44-28.615.481-43.488.456.189-.4.848-1.02 1.506-1.02 13.93.013 27.859.097 41.982.564z"/>
  <path fill="#FFF" d="M2034 249.001h894.568c-4.152 10.632-8.044 20.66-11.981 30.67-29.516 75.049-59.064 150.085-88.448 225.185-.847 2.166-.71 5.288.175 7.477 28.391 70.31 56.935 140.557 85.445 210.818 4.742 11.685 9.437 23.39 14.328 35.52H892.657c102.244-166.787 107.009-336.575 14.817-509.67H2034m-829.877 246.257c1.945-.428 3.888-.859 5.833-1.283 43.282-9.45 64.127-53.16 43.762-92.542-12.061-23.324-33.139-32.49-58.005-33.267-26.467-.829-52.979-.26-79.47-.301-1.618-.003-3.235 0-4.924 0v233.867h30.542V495.405c5.92 0 11.412.31 16.85-.1 4.16-.315 6.682 1.284 9.26 4.355 27.727 33.028 55.624 65.914 83.348 98.945 2.16 2.572 4.317 3.52 7.573 3.462 9.995-.179 19.994-.053 29.992-.08 1.198-.003 2.396-.222 3.99-.38-1.247-1.494-2.095-2.516-2.95-3.532-28.614-34.018-57.23-68.034-85.8-102.817m430.415 161.801c20.49-15.531 28.693-36.937 28.794-61.818.208-51.155.06-102.31.06-153.465v-4.526h-28.553v24.294c-2.903-3.13-5.19-5.966-7.845-8.399-24.074-22.054-60.312-25.488-89.485-8.567-34.35 19.923-49.131 62.834-35.556 103.216 13.042 38.795 53.185 61.499 92.74 52.23 16.16-3.788 29.444-12.404 40.175-26.324 0 8.412.31 15.858-.056 23.27-1.41 28.576-22.316 48.887-50.87 50.061-24.72 1.016-45.28-7.34-61.579-26.603l-19.302 20.741c4.612 4.057 9.743 9.32 15.603 13.578 15.036 10.927 32.24 16.347 50.612 17.83 23.104 1.867 45.16-1.332 65.262-15.518m1036.964-300.061h-13.667v106.22c-.804-.708-1.17-.963-1.454-1.291-25.731-29.738-69.618-34.675-101.404-11.402-40.205 29.438-46.59 91.282-12.837 128.27 20.377 22.329 45.873 30.542 75.515 24.105 16.001-3.474 29.343-11.896 40.402-25.764v24.56h27.656v-244.43c-.597-.123-.909-.242-1.22-.244-4-.018-7.998-.019-12.99-.024m-672.79 119.293c-12.863 24.714-14.453 50.293-4.67 76.219 15.506 41.086 58.768 62.122 98.713 48.465 13.158-4.498 24.277-12.062 33.792-24.089v24.81h28.159V437.337h-28.367v23.552c-1.353-.19-1.707-.955-2.234-1.572-13.995-16.402-32.066-24.775-53.34-25.183-32.014-.614-55.637 14.156-72.053 42.156m-572.818 121.146c15.215-6.683 27-17.217 35.934-31.667l-22.247-15.392c-22.265 27.848-48.653 35.765-77.01 23.306-20.22-8.884-32.73-31.101-31.019-48.766h134.627c1.258-27.488-4.233-52.343-25.212-71.49-25.893-23.631-70.062-26.368-100.87-6.007-29.218 19.31-40.78 47.566-37.548 81.65 3.065 32.317 19.21 56.448 49.718 69.14 24.127 10.04 48.691 9.077 73.627-.774m1045.433-41.259-7.736-5.246c-17.955 29.924-49.685 32.296-72 24.62-21.366-7.349-36.861-29.638-35.023-49.588h133.45c0-5.964.392-11.628-.071-17.222-1.687-20.395-8.558-38.664-23.924-52.775-19.747-18.137-43.607-23.184-69.222-18.65-72.288 12.798-86.205 94.442-50.891 137.765 19.663 24.124 46.158 32.063 76.266 29.446 27.16-2.36 48.65-14.646 63.74-38.298-4.735-3.25-9.374-6.434-14.589-10.052M1858.374 465.5v-28.164h-28.511c0 29.144.41 57.96-.157 86.757-.33 16.702-5.29 32.08-17.943 44.1-17.495 16.623-53.791 16.485-62.595-17.8-1.512-5.888-2.032-12.168-2.073-18.274-.205-29.982-.094-59.967-.094-89.951v-4.906h-28.382c0 34.232-.055 68.2.058 102.168.018 5.134.372 10.35 1.335 15.382 4.263 22.274 15.639 39.402 37.871 46.693 22.305 7.316 43.426 4.399 61.575-11.627 3.82-3.374 6.812-7.685 10.729-12.189v24.022h28.187V465.5m432.984 111.484c-6.29.076-12.68.9-18.847.065-11.08-1.502-16.95-8.066-18.407-19.17a81.761 81.761 0 0 1-.692-10.44c-.054-26.317-.031-52.634-.015-78.95.001-1.738.148-3.475.238-5.462h47.04v-26.29h-47.267v-45.376h-28.73v45.95h-34.373v26.075H2225v6.383c0 28.649-.242 57.3.09 85.944.205 17.624 6.138 32.837 22.52 41.702 17.182 9.298 35.16 7.875 53.121 2.86v-25.373c-3.033.713-5.769 1.356-9.372 2.082M1943 550.5V355.272h-28.131v246.436h28.13V550.5z"/>
  <path fill="#FCFDFD" d="M240.122 630V410.177h33.365v27.23c1.254-.948 1.937-1.29 2.384-1.827 29.71-35.673 86.645-40.443 124.556-7.327 47.384 41.392 45.113 120.48-4.51 158.428-38.362 29.335-92.51 22.838-120.641-11.726-.19-.233-.493-.373-1.48-1.096v107.143h-33.674V630m31.634-136.527c-1.654 10.496-1.391 20.974 1.356 31.21 6.414 23.899 20.56 41.041 45.03 47.527 24.177 6.408 46.125 1.358 63.635-17.068 17.407-18.319 21.343-40.821 17.229-65.022-6.186-36.388-40.135-59.553-76.252-52.313-27.044 5.422-45.622 25.429-50.998 55.666z"/>
  <path fill="#FDFEFE" d="M667.668 427.654c48.403-38.659 130.797-26.36 156.75 40.781 23.17 59.945-12.206 128.307-81.713 136.36-42.338 4.904-82.772-16.576-101.434-53.887-18.913-37.813-11.774-84.856 17.586-115.367 2.643-2.748 5.684-5.114 8.811-7.887m68.655 146.457c14.399-.974 27.343-5.754 38.16-15.4 17.272-15.403 23.926-35.22 22.588-57.84-3.247-54.896-55.848-76.706-96.087-56.916-22.025 10.832-33.21 29.846-35.556 53.708-2.42 24.611 4.648 46.192 24.266 62.425 13.203 10.925 28.761 14.843 46.629 14.023z"/>
  <path fill="#FCFEFE" d="M492.603 503.43c-25.246-18.063-31.332-51.46-13.547-74.446 9.54-12.33 22.845-18.633 37.851-21.309 22.005-3.923 43.122-1.896 62.261 10.878 8.135 5.43 15.797 14.06 18.91 21.173l-23.54 16.188c-5.447-4.892-10.009-10.13-15.605-13.788-13.969-9.132-29.046-10.39-44.098-2.874-15.386 7.682-17.277 25.956-3.567 36.38 5.537 4.211 12.488 6.798 19.105 9.306 13.186 4.995 27.06 8.402 39.797 14.306 24.498 11.357 33.691 30.027 32.241 52.871-1.665 26.229-18.122 44.66-44.732 50.566-26.467 5.875-52.053 3.003-74.948-12.963-10.332-7.205-17.62-16.956-22.13-29.147l26.674-14.839c13.218 23.415 32.908 33.553 57.653 29.136 5.512-.984 11.242-3.5 15.747-6.831 11.439-8.46 11.965-25.846.88-34.752-5.57-4.475-12.453-7.633-19.18-10.272-9.722-3.814-19.97-6.277-29.748-9.968-6.793-2.564-13.174-6.223-20.024-9.615z"/>
  <path fill="#FAFCFC" d="M159.125 545V410.022h34.183v191.174h-34.183V545z"/>
  <path fill="#FCFEFE" d="M893.974 597.98c-14.938 13.98-40.815 7.027-44.582-15.582-2.467-14.81 9.037-28.852 24.83-30.207 14.234-1.222 27.433 10.908 27.833 25.263.22 7.956-2.295 14.64-8.08 20.526z"/>
  <path fill="#FBFDFD" d="M153.138 344.598c5.646-18.786 25.334-25.508 38.876-13.67 8.114 7.092 10.252 19.389 5.078 29.197-4.961 9.406-15.762 14.086-26.328 11.41-10.537-2.67-17.71-11.756-17.765-22.52-.007-1.332.042-2.664.139-4.417z"/>
  <path fill="#020202" d="M1204.102 495.64c28.593 34.4 57.208 68.417 85.822 102.435.855 1.016 1.703 2.038 2.95 3.532-1.594.158-2.792.377-3.99.38-9.998.027-19.997-.099-29.992.08-3.256.059-5.414-.89-7.573-3.462-27.724-33.031-55.621-65.917-83.348-98.945-2.578-3.071-5.1-4.67-9.26-4.355-5.438.41-10.93.1-16.85.1v106.327h-30.542V367.865c1.69 0 3.306-.003 4.923 0 26.492.04 53.004-.528 79.471.3 24.866.779 45.944 9.944 58.005 33.268 20.365 39.381-.48 83.093-43.762 92.542-1.945.424-3.888.855-5.854 1.666m-19.74-99.262h-42.602v71.385c17.731 0 35.007.274 52.264-.167 5.182-.132 10.515-1.721 15.428-3.575 13.71-5.174 20.048-15.815 20.458-30.088.422-14.684-4.7-26.97-18.928-32.59-7.964-3.145-17.068-3.405-26.62-4.965zm449.881 260.881c-19.806 13.985-41.862 17.184-64.966 15.318-18.372-1.484-35.576-6.904-50.612-17.83-5.86-4.26-10.99-9.522-15.603-13.579l19.302-20.741c16.3 19.263 36.859 27.62 61.578 26.603 28.555-1.174 49.46-21.485 50.871-50.06.366-7.413.056-14.86.056-23.27-10.73 13.92-24.015 22.535-40.175 26.322-39.555 9.27-79.698-13.434-92.74-52.229-13.575-40.382 1.206-83.293 35.556-103.216 29.173-16.921 65.41-13.487 89.485 8.567 2.656 2.433 4.942 5.27 7.845 8.4V437.25h28.553v4.526c0 51.155.148 102.31-.06 153.465-.101 24.88-8.303 46.287-29.09 62.02M1527.207 504.95c-.389 3.972-1.085 7.942-1.118 11.917-.336 40.073 30.713 64.116 66.538 57.593 22.037-4.012 36.51-17.443 42.152-38.997 6.1-23.295 2.197-44.86-16.197-61.787-26.65-24.524-80.655-17.318-91.375 31.274z"/>
  <path fill="#010101" d="M2672 356.998c4.496.005 8.495.006 12.493.024.312.002.624.12 1.221.244v244.43h-27.656v-24.56c-11.059 13.868-24.4 22.29-40.402 25.764-29.642 6.437-55.138-1.776-75.515-24.106-33.753-36.987-27.368-98.831 12.837-128.269 31.786-23.273 75.673-18.336 101.404 11.402.283.328.65.583 1.454 1.29v-106.22H2672m-103.424 118.057c-16.73 15.653-22.353 35.157-18.403 57.19 8.162 45.54 55.29 57.433 84.507 38.232 19.497-12.813 26.702-32.095 25.21-54.7-1.45-21.994-11.176-39.497-31.774-48.742-20.796-9.333-40.828-6.707-59.54 8.02z"/>
  <path fill="#020202" d="M1998.86 475.95c16.27-27.66 39.893-42.43 71.907-41.815 21.274.408 39.345 8.781 53.34 25.183.527.617.88 1.381 2.234 1.572v-23.552h28.367v164.357h-28.16v-24.809c-9.514 12.027-20.633 19.591-33.791 24.09-39.945 13.656-83.207-7.38-98.713-48.466-9.783-25.926-8.193-51.505 4.816-76.56m114.338 1.368c-21.476-22.034-56.283-23.401-78.131-2.434-16.48 15.816-21.127 35.887-16.864 57.755 4.354 22.337 17.282 38.226 39.733 44.16 22.493 5.944 42.37.34 57.542-17.847 18.714-22.433 17.675-58.375-2.28-81.634zm-687.633 120.31c-24.605 9.66-49.169 10.622-73.296.584-30.508-12.693-46.653-36.824-49.718-69.142-3.232-34.083 8.33-62.339 37.548-81.649 30.808-20.361 74.977-17.624 100.87 6.007 20.979 19.147 26.47 44.002 25.212 71.49h-134.627c-1.71 17.665 10.799 39.882 31.019 48.766 28.357 12.46 54.745 4.542 77.01-23.306l22.247 15.392c-8.934 14.45-20.72 24.984-36.265 31.858M1360.5 502h76.373c-1.662-22.73-22.679-41.883-46.68-42.873-28.42-1.174-53.322 17.364-57.058 42.873h27.365zm1111.117 54.395c4.927 3.4 9.566 6.585 14.301 9.835-15.09 23.652-36.58 35.938-63.74 38.298-30.108 2.617-56.603-5.322-76.266-29.446-35.314-43.323-21.397-124.967 50.891-137.764 25.615-4.535 49.475.512 69.222 18.649 15.366 14.111 22.237 32.38 23.924 52.775.463 5.594.07 11.258.07 17.222H2356.57c-1.838 19.95 13.657 42.24 35.024 49.589 22.314 7.675 54.044 5.303 71.999-24.621 2.586 1.754 5.161 3.5 8.024 5.463m-110.139-64.322-3.651 10.752h103.461c-1.047-8.308-4.038-15.606-8.845-22.146-22.611-30.764-73.404-24.746-90.965 11.394z"/>
  <path fill="#010101" d="M1858.374 466v135.71h-28.187v-24.02c-3.917 4.503-6.909 8.814-10.73 12.188-18.148 16.026-39.269 18.943-61.574 11.627-22.232-7.291-33.608-24.419-37.87-46.693-.964-5.032-1.318-10.248-1.336-15.382-.113-33.968-.058-67.936-.058-102.168H1747v4.906c0 29.984-.111 59.969.094 89.951.041 6.106.56 12.386 2.073 18.275 8.804 34.284 45.1 34.422 62.595 17.8 12.653-12.021 17.614-27.399 17.943-44.1.567-28.798.157-57.614.157-86.758h28.511V466zm433.418 110.943c3.17-.684 5.905-1.327 8.938-2.04v25.373c-17.96 5.015-35.94 6.438-53.12-2.86-16.383-8.865-22.316-24.078-22.52-41.702-.333-28.644-.09-57.295-.09-85.944v-6.383h-34.695v-26.075h34.373v-45.95h28.73v45.376h47.266v26.29h-47.039c-.09 1.987-.237 3.724-.238 5.462-.016 26.316-.04 52.633.015 78.95.007 3.481.239 6.987.692 10.44 1.457 11.104 7.326 17.668 18.407 19.17 6.166.835 12.558.011 19.281-.107z"/>
  <path d="M1943 551v50.708h-28.131V355.272h28.13V551z"/>
  <path fill="#019697" d="M271.813 493.04c5.32-29.804 23.897-49.811 50.941-55.233 36.117-7.24 70.066 15.925 76.252 52.313 4.114 24.2.178 46.703-17.23 65.022-17.509 18.426-39.457 23.476-63.633 17.068-24.47-6.486-38.617-23.628-45.03-47.526-2.748-10.237-3.011-20.715-1.3-31.645zm464.031 81.08c-17.389.811-32.947-3.107-46.15-14.032-19.618-16.233-26.685-37.814-24.266-62.425 2.345-23.862 13.531-42.876 35.556-53.708 40.24-19.79 92.84 2.02 96.087 56.917 1.338 22.62-5.316 42.436-22.588 57.839-10.817 9.646-23.761 14.426-38.639 15.408z"/>
  <path fill="#FDFDFD" d="M1184.843 396.379c9.07 1.56 18.175 1.82 26.14 4.966 14.228 5.619 19.349 17.905 18.927 32.589-.41 14.273-6.748 24.914-20.458 30.088-4.913 1.854-10.246 3.443-15.428 3.575-17.257.441-34.533.167-52.264.167V396.38h43.083z"/>
  <path fill="#FEFEFE" d="M1527.313 504.54c10.614-48.182 64.619-55.388 91.269-30.864 18.394 16.927 22.296 38.492 16.197 61.787-5.643 21.554-20.115 34.985-42.152 38.997-35.825 6.523-66.874-17.52-66.538-57.593.033-3.975.73-7.945 1.224-12.328zm1041.546-29.704c18.43-14.509 38.46-17.135 59.257-7.802 20.598 9.245 30.323 26.748 31.775 48.741 1.491 22.606-5.714 41.888-25.211 54.701-29.218 19.201-76.345 7.308-84.507-38.232-3.95-22.033 1.672-41.537 18.686-57.408zm-455.423 2.748c19.717 22.993 20.756 58.935 2.042 81.368-15.172 18.187-35.049 23.791-57.542 17.846-22.451-5.933-35.379-21.822-39.733-44.159-4.263-21.868.384-41.939 16.864-57.755 21.848-20.967 56.655-19.6 78.369 2.7z"/>
  <path fill="#FDFDFD" d="M1360 502h-26.865c3.736-25.509 28.638-44.047 57.058-42.873 24.001.99 45.018 20.144 46.68 42.873H1360zm1001.649-10.266c17.39-35.801 68.183-41.82 90.794-11.055 4.807 6.54 7.798 13.838 8.845 22.146h-103.461a865.055 865.055 0 0 1 3.822-11.091z"/>
</svg>
