<svg xmlns="http://www.w3.org/2000/svg" width="263" height="80" fill="none"><path fill="#F1BB00" d="M0 0h263v80H0z"/><path fill="#231F20" fill-rule="evenodd" d="M88.895 16.377c-1.21 0-2.373.594-3.776 1.686V10c-1.376.212-2.73.331-4.082.379v.71l.875-.019h.051c.758 0 .805.714.805 2.973v10.994c0 .178.008.325.015.45q.007.137.009.24c0 .285-.07.405-.453.405h-.828v.714h5.202v-.714h-.501c-.972 0-1.046-.381-1.046-2.618V18.85c.883-.666 1.713-1 2.449-1 1.255 0 1.73.858 1.73 2.62v4.567c0 .178.01.326.017.45q.009.136.01.24c0 .285-.071.405-.453.405h-.69v.714h5.084v-.714h-.522c-.975 0-1.02-.381-1.02-2.618v-3.306c0-1.31-.024-2.237-.666-2.952-.523-.571-1.26-.88-2.21-.88M35.06 11.762l4.913 10.44c.075.124.12.195.17.195.041 0 .064-.061.104-.168l.01-.027 4.516-10.44h3.94v.758h-.997c-.354 0-.401.12-.401.476v9.543c0 2.544.021 3.524 1.137 3.524h.855v.784h-5.983v-.784h.998c.45 0 .475-.193.475-.766V14.234L39.596 26.11c-.165.356-.285.57-.405.57-.095 0-.191-.195-.354-.528l-5.177-11.465v7.043c0 3.213.021 4.332 1.113 4.332h1.31v.784h-4.895v-.784h.88c.57 0 .66-.36.66-1.502v-9.496c0-1.948-.04-2.545-1.375-2.545h-.712v-.758zM58.646 27.06h-.074c-1.447 0-2.469-.664-2.92-1.806-1.471 1.257-2.662 1.9-3.777 1.9-1.327 0-2.208-.881-2.208-2.233 0-2.096 1.922-3.144 5.892-4.501V19.04c0-1.143-.571-1.738-1.638-1.738-.57 0-1.143.144-1.593.406 0 1.474-.714 2.38-1.567 2.38-.43 0-.783-.381-.783-.857 0-1.452 2.062-2.856 5.413-2.856 2.257 0 2.588.761 2.588 2.736v4.259c0 1.429.167 2 1.615 2.331zm-6.531-2.901c0 .831.495 1.378 1.236 1.378.639 0 1.374-.356 2.208-1.092v-3.238c-2.33.832-3.444 1.689-3.444 2.952m8.934 1.971h-.811v.716h5.18v-.716h-.5c-.997 0-1.023-.381-1.023-2.616v-4.665c.878-.665 1.712-1 2.448-1 1.26 0 1.736.859 1.736 2.62v4.567c0 .18.008.328.015.453q.008.134.009.239c0 .287-.073.402-.45.402h-.692v.716h5.081v-.716h-.52c-.978 0-1.046-.381-1.046-2.616v-3.331c0-1.285-.022-2.212-.665-2.927-.522-.572-1.258-.881-2.183-.881-1.214 0-2.4.596-3.825 1.688v-1.688a46 46 0 0 1-4.063.333v.693l.903-.023h.047c.785 0 .809.735.809 2.973v4.685q.002.217.014.393.009.14.01.25c0 .336-.073.451-.474.451m16.51-9.016c-1.54 0-2.941 1.713-2.941 4.33 0 2.83 1.515 4.569 3.75 4.569.902 0 1.734-.308 2.541-.951l.38.498c-1.09 1.075-2.472 1.592-4.108 1.592-3.064 0-5.013-1.996-5.013-5.015 0-3.262 2.352-5.74 5.343-5.74 2.022 0 3.33 1.004 3.33 2.147 0 .518-.36.903-.812.903-.83 0-1.59-.857-1.613-2.094a1.8 1.8 0 0 0-.856-.24m18.471 4.424c.168 2.882 1.377 4.38 3.491 4.38.997 0 1.993-.38 2.946-1.116l.381.521c-1.308 1.215-2.849 1.854-4.467 1.854-3.065 0-4.893-1.97-4.893-5.163 0-3.306 2.066-5.638 4.868-5.638 2.021 0 3.514 1.144 4.372 3.38zm1.925-4.355c-1.093 0-1.925 1.287-1.925 3.57l4.11-1.14c-.596-1.615-1.306-2.43-2.185-2.43m12.99 1.31v-.07l-.144-1.573c-.901-.308-1.779-.476-2.66-.476-2.826 0-4.56 1.43-4.56 3.262 0 .905.618 1.881 1.663 2.403.657.337 1.278.512 1.791.657.321.09.601.17.82.269 1.047.454 1.543.905 1.543 1.67 0 .946-.996 1.686-2.633 1.686-1.401 0-2.355-.545-2.757-1.477-.141-.354-.237-.543-.474-.543-.214 0-.309.092-.309.308q.001.031.01.074c.007.036.016.077.016.119l.238 1.852c.899.335 1.944.523 3.059.523 3.04 0 4.967-1.52 4.967-3.542 0-1.693-1.259-2.451-3.589-3.262l-.045-.015c-1.421-.49-2.259-.778-2.259-1.698 0-.809.787-1.404 2.092-1.404 1.14 0 2.044.407 2.349.905q.071.114.129.215c.156.269.262.451.493.451.163 0 .26-.117.26-.334m4.786-1.783h2.587l-.095.69c-.047.286-.116.33-.427.33h-2.065v5.834c0 1.665.12 2.427 1.402 2.427.498 0 .996-.146 1.545-.36l.283.6a6.4 6.4 0 0 1-3.275.875c-2.045 0-2.354-1.022-2.354-3.067v-6.257h-1.047c-.14 0-.236-.052-.236-.146 0-.05.045-.14.122-.216l2.491-2.424.115-.115c.314-.318.523-.53.692-.53h.262zm8.953 9.208c-2.111 0-3.323-1.498-3.488-4.38l6.697-1.783c-.856-2.235-2.352-3.379-4.376-3.379-2.8 0-4.866 2.332-4.866 5.638 0 3.194 1.828 5.163 4.894 5.163 1.616 0 3.16-.639 4.465-1.854l-.38-.521c-.946.735-1.947 1.116-2.946 1.116m-3.488-5.165c0-2.283.828-3.57 1.922-3.57.877 0 1.589.815 2.184 2.43zm7.357 5.377h.807c.405 0 .476-.115.476-.45q0-.112-.009-.25a7 7 0 0 1-.013-.394V20.35c0-2.237-.027-2.972-.808-2.972h-.047l-.905.023v-.693a48 48 0 0 0 4.159-.333v1.975c1.211-1.236 1.947-1.976 2.944-1.976.499 0 .903.168 1.262.501l-.359 1.762c-.049.261-.122.383-.285.383-.145 0-.235-.116-.347-.26-.185-.237-.431-.553-1.082-.553-.757 0-1.42.36-2.133 1.048v4.259c0 2.166.092 2.616 1.114 2.616h.88v.716h-5.654zm-102.76.144.651-4.524H0v1.744h1.636c2.446 0 2.61 1.473 2.61 7.143v22.515c0 1.04-.11 1.417-1.196 1.417H1.035v1.744h25.357l1.36-4.686c.11-.38.11-.601.11-.71 0-.268-.274-.546-.544-.546-.5 0-.91.443-1.414.987-.542.586-1.193 1.289-2.18 1.684-1.849.712-4.68 1.31-7.836 1.31h-2.991c-2.448 0-2.557-1.31-2.557-7.086V38.16h5.986c3.86 0 5.062.108 5.062 1.798v1.8h1.63v-9.487h-1.63V33.8c0 2.18-1.418 2.398-6.476 2.398H10.34V24.911c0-.925.058-1.197 1.252-1.197h3.37c4.411 0 7.24.597 8.326 1.416.419.32.681.774.913 1.175.282.487.52.896.937.896.437 0 .543-.273.655-.928m10.314 6.816v1.636H34.75c-.765 0-1.305.493-1.305.982 0 .164.108.543.325 1.036l4.787 11.282c.163.331.327.545.492.545.086 0 .175-.18.325-.482q.05-.104.111-.222l2.938-6.6c1.085-2.507 1.738-4.305 1.738-5.287s-.49-1.254-1.905-1.254h-1.633V33.09h9.255v1.636h-1.144c-1.416 0-1.825.923-2.798 3.126q-.167.376-.358.804l-7.62 16.785c-.146.293-.28.581-.397.833-.232.498-.4.859-.472.859-.405 0-.753-.822-1.264-2.031V55.1c-.174-.41-.366-.865-.585-1.347l-7.021-15.54c-1.087-2.342-1.797-3.488-3.318-3.488h-.978V33.09zm24.455 21.1c-4.845 0-7.618-3.435-8.001-10.032l15.344-4.09c-1.958-5.124-5.389-7.743-10.01-7.743-6.423 0-11.155 5.345-11.155 12.925 0 7.305 4.188 11.83 11.208 11.83 3.7 0 7.235-1.472 10.23-4.254l-.874-1.202c-2.174 1.693-4.46 2.565-6.742 2.565M52.56 42.357c0-5.233 1.904-8.178 4.409-8.178 2.011 0 3.644 1.853 5.006 5.564zM68.28 54.68h1.85c.926 0 1.09-.275 1.09-1.038 0-.167-.011-.356-.023-.565v-.004c-.016-.266-.033-.566-.033-.9v-10.74c0-5.124-.055-6.816-1.85-6.816h-.106l-2.068.054V33.09c3.1-.11 6.202-.383 9.304-.764v3.871c3.264-2.508 5.985-3.871 8.76-3.871 2.12 0 3.808.71 5.006 2.02 1.468 1.634 1.525 3.758 1.525 6.703v7.634c0 5.123.16 5.997 2.392 5.997h1.194v1.633H83.68V54.68h1.58c.868 0 1.034-.275 1.034-.926 0-.16-.01-.341-.021-.55v-.002a18 18 0 0 1-.034-1.029V41.705c0-4.035-1.089-5.997-3.973-5.997-1.686 0-3.591.76-5.603 2.292v10.683c0 5.123.052 5.997 2.338 5.997h1.144v1.633H68.28zm36.036-5.673v-.326l.106-16.357c-3.425.385-6.636.602-9.627.766v1.582l2.065-.055h.109c1.688 0 1.85 1.416 1.85 6.813v12.105c0 .872-.11 1.143-1.033 1.143h-1.853v1.633h12.572v-1.633h-1.633c-2.176 0-2.556-.706-2.556-5.671m4.726 5.673h1.853c.92 0 1.083-.275 1.083-1.038 0-.168-.01-.358-.021-.57a17 17 0 0 1-.029-.899v-10.74c0-5.124-.055-6.816-1.85-6.816h-.112l-2.066.054V33.09c3.103-.11 6.2-.383 9.306-.764v3.871c3.261-2.508 5.985-3.871 8.76-3.871 2.119 0 3.805.71 5.006 2.02 1.468 1.634 1.523 3.758 1.523 6.703v7.634c0 5.123.163 5.997 2.394 5.997h1.198v1.633h-11.647V54.68h1.581c.866 0 1.032-.275 1.032-.926q-.001-.24-.021-.552c-.015-.285-.033-.621-.033-1.029V41.705c0-4.035-1.089-5.997-3.973-5.997-1.687 0-3.593.76-5.606 2.292v10.683c0 5.123.055 5.997 2.343 5.997h1.139v1.633h-11.86zm36.309-4.798c6.092 0 10.444-3.925 10.444-9.16 0-2.068-.704-3.76-1.902-5.233 1.086.162 1.849.271 2.231.271 1.032 0 1.47-.271 1.631-1.088l.326-1.526c.055-.22.055-.383.055-.49 0-.384-.164-.546-.542-.546-.295 0-.504.234-.75.508-.346.387-.763.853-1.59.853-1.03 0-2.227-.22-3.57-.469-1.71-.315-3.656-.675-5.79-.675-5.659 0-9.904 4.255-9.904 9.379 0 3.432 1.632 5.887 4.843 7.197-2.34 2.286-3.593 3.87-3.593 5.448 0 1.529 1.091 2.838 3.105 3.327-3.593 1.473-5.442 3.271-5.442 5.45 0 4.417 3.59 6.872 10.334 6.872 8.543 0 13.392-3.599 13.392-8.777 0-2.837-1.473-5.072-3.756-5.944-2.644-1.018-5.169-1.184-7.524-1.34a55 55 0 0 1-2.327-.185c-2.398-.22-3.589-.876-3.589-2.183 0-.655.325-1.36.98-2.072.974.274 1.958.383 2.938.383m1.144-1.746c-2.833 0-5.118-3.217-5.118-8.34 0-3.543 1.581-5.56 3.698-5.56 2.723 0 5.282 3.217 5.282 8.124 0 3.653-1.632 5.776-3.862 5.776m.051 20.008c-4.57 0-7.4-2.07-7.4-4.958 0-1.857.978-3.437 2.938-4.8 8.11.927 12.135 1.527 12.135 5.126 0 2.508-2.833 4.632-7.673 4.632m18.595-46.394 20.629 24.538V30.856c0-5.398-.155-7.362-2.45-7.362h-2.3V21.75h9.923v1.744h-2.193c-.836 0-.888.166-.888.877v31.507c0 .489 0 .768-.262.768-.208 0-.413-.166-.626-.44l-23.978-28.022v19.46c0 4.745.419 6.873 2.092 6.873h3.185v1.796h-10.763v-1.796h2.04c1.098 0 1.356-.112 1.356-1.415V29.929c0-4.415-.675-6.435-3.552-6.435h-1.147V21.75zm38.57 32.44c-4.846 0-7.617-3.435-7.999-10.032l15.343-4.09c-1.959-5.124-5.388-7.743-10.014-7.743-6.419 0-11.151 5.345-11.151 12.925 0 7.305 4.191 11.83 11.21 11.83 3.699 0 7.236-1.472 10.228-4.254l-.87-1.202c-2.178 1.693-4.46 2.565-6.747 2.565m-7.999-11.832c0-5.233 1.905-8.178 4.406-8.178 2.013 0 3.646 1.853 5.005 5.564zm13.29-9.268h10.864v1.636h-1.149c-.653 0-1.155.434-1.155.873 0 .12.087.372.216.748l.001.003.134.394 4.055 10.959c.25.597.448.926.651.926.118 0 .204-.233.356-.646q.064-.176.146-.392l3.355-8.123-1.453-3.432c-.401-.93-.904-1.31-1.702-1.31h-.702V33.09h10.715v1.636h-1.406c-.696 0-1.149.434-1.149.819 0 .213.099.653.351 1.309l4.004 10.903q.302.814.602.814c.164 0 .226-.178.351-.535q.043-.126.099-.28l2.903-7.361.053-.133c.776-1.95 1.348-3.385 1.348-4.663 0-.601-.551-.873-1.7-.873h-1.401V33.09h8.207v1.636h-.801c-1.43 0-1.86 1.041-2.545 2.695l-.103.249-7.363 17.609c-.4.984-.804 1.854-1.202 1.854-.174 0-.351-.483-.595-1.148-.104-.283-.22-.6-.354-.925l-5.258-13.354-5.755 13.68-.118.272c-.347.81-.633 1.475-1.084 1.475-.278 0-.493-.584-.771-1.34-.073-.197-.15-.407-.233-.62l-6.409-16.517c-1.1-2.84-1.547-3.93-3.101-3.93h-.902zm52.19 4.087v-.163l-.324-3.597c-2.068-.708-4.081-1.092-6.096-1.092-6.476 0-10.447 3.273-10.447 7.47 0 2.074 1.417 4.305 3.81 5.507 1.494.764 2.907 1.165 4.078 1.496.748.212 1.398.396 1.907.63 2.393 1.035 3.538 2.071 3.538 3.82 0 2.177-2.288 3.867-6.044 3.867-3.203 0-5.384-1.253-6.311-3.38-.326-.819-.542-1.254-1.086-1.254-.49 0-.706.218-.706.71q.002.076.022.175c.015.08.031.17.031.26l.547 4.254c2.064.764 4.461 1.2 7.015 1.2 6.966 0 11.373-3.492 11.373-8.124 0-3.871-2.886-5.618-8.217-7.47l-.101-.034c-3.256-1.121-5.177-1.782-5.177-3.89 0-1.855 1.797-3.217 4.792-3.217 2.611 0 4.679.926 5.385 2.072q.162.261.293.492c.355.613.598 1.033 1.122 1.033.378 0 .596-.272.596-.765" clip-rule="evenodd"/></svg>