<svg width="154" height="49" viewBox="0 0 154 49" fill="none" xmlns="http://www.w3.org/2000/svg">
<g clip-path="url(#clip0_1385_416083)">
<g clip-path="url(#clip1_1385_416083)">
<path d="M22.5741 13.7212H4.49596C3.02768 13.7212 1.8374 14.9115 1.8374 16.3797V34.4579C1.8374 35.9262 3.02768 37.1165 4.49596 37.1165H22.5741C24.0424 37.1165 25.2327 35.9262 25.2327 34.4579V16.3797C25.2327 14.9115 24.0424 13.7212 22.5741 13.7212Z" fill="white"/>
<path fill-rule="evenodd" clip-rule="evenodd" d="M16.167 32.5974H10.919C10.8682 32.5974 10.8195 32.5772 10.7836 32.5413C10.7477 32.5055 10.7276 32.4568 10.7276 32.406V23.4812C10.7276 23.4178 10.7024 23.3569 10.6575 23.312C10.6126 23.2672 10.5518 23.242 10.4883 23.242H5.82521C5.77444 23.242 5.72575 23.2218 5.68985 23.1859C5.65396 23.15 5.63379 23.1013 5.63379 23.0505V18.4326C5.63379 18.3819 5.65396 18.3332 5.68985 18.2973C5.72575 18.2614 5.77444 18.2412 5.82521 18.2412H21.2448C21.2956 18.2412 21.3443 18.2614 21.3802 18.2973C21.4161 18.3332 21.4362 18.3819 21.4362 18.4326V23.0505C21.4362 23.1013 21.4161 23.15 21.3802 23.1859C21.3443 23.2218 21.2956 23.242 21.2448 23.242H16.5472C16.4964 23.242 16.4477 23.2621 16.4118 23.298C16.3759 23.3339 16.3557 23.3826 16.3557 23.4334V32.406C16.3557 32.4563 16.3359 32.5046 16.3006 32.5404C16.2653 32.5762 16.2173 32.5967 16.167 32.5974Z" fill="#22201D"/>
<mask id="mask0_1385_416083" style="mask-type:luminance" maskUnits="userSpaceOnUse" x="5" y="18" width="17" height="15">
<path d="M16.167 32.5977H10.919C10.8682 32.5977 10.8195 32.5775 10.7836 32.5416C10.7477 32.5057 10.7276 32.457 10.7276 32.4062V23.4815C10.7276 23.418 10.7024 23.3572 10.6575 23.3123C10.6126 23.2674 10.5518 23.2422 10.4883 23.2422H5.82521C5.77444 23.2422 5.72575 23.222 5.68985 23.1861C5.65396 23.1502 5.63379 23.1015 5.63379 23.0508V18.4329C5.63379 18.3821 5.65396 18.3334 5.68985 18.2975C5.72575 18.2616 5.77444 18.2415 5.82521 18.2415H21.2448C21.2956 18.2415 21.3443 18.2616 21.3802 18.2975C21.4161 18.3334 21.4362 18.3821 21.4362 18.4329V23.0508C21.4362 23.1015 21.4161 23.1502 21.3802 23.1861C21.3443 23.222 21.2956 23.2422 21.2448 23.2422H16.5472C16.4964 23.2422 16.4477 23.2624 16.4118 23.2983C16.3759 23.3342 16.3557 23.3828 16.3557 23.4336V32.4062C16.3557 32.4566 16.3359 32.5048 16.3006 32.5407C16.2653 32.5765 16.2173 32.597 16.167 32.5977Z" fill="white"/>
</mask>
<g mask="url(#mask0_1385_416083)">
<path d="M121.969 -74.0242H-113.326V117.44H121.969V-74.0242Z" fill="#22201D"/>
<mask id="mask1_1385_416083" style="mask-type:luminance" maskUnits="userSpaceOnUse" x="-114" y="-75" width="236" height="193">
<path d="M121.969 -74.0237H-113.326V117.44H121.969V-74.0237Z" fill="white"/>
</mask>
<g mask="url(#mask1_1385_416083)">
<path d="M21.6705 18.002H5.40015V32.8367H21.6705V18.002Z" fill="#22201D"/>
</g>
</g>
<path d="M41.7421 21.6547H38.3657V30.7895H35.9863V21.6547H32.6764V19.7246H41.7421V21.6547Z" fill="white"/>
<path d="M49.3537 23.183C49.8322 23.6952 50.0715 24.5131 50.0715 25.6368V30.7891H47.7772V25.6209C47.7772 25.1246 47.6717 24.7754 47.4608 24.5734C47.193 24.3505 46.8483 24.2416 46.5011 24.2703C46.2392 24.2483 45.9764 24.2992 45.7418 24.4175C45.5071 24.5358 45.3098 24.7167 45.1718 24.9403V30.7891H42.8774V19.7295H45.1718V23.4515C45.4319 23.1274 45.7606 22.865 46.1342 22.6831C46.5101 22.504 46.9221 22.4131 47.3385 22.4173C47.7095 22.3948 48.081 22.4514 48.4284 22.5834C48.7759 22.7154 49.0913 22.9198 49.3537 23.183Z" fill="white"/>
<path d="M58.6294 27.4235H53.432C53.495 27.8925 53.7208 28.3244 54.07 28.6438C54.4334 28.9541 54.9006 29.1156 55.378 29.0957C55.7557 29.0996 56.1299 29.0235 56.476 28.8724C56.8147 28.7222 57.1114 28.4913 57.34 28.1998L58.4407 29.4679C58.1123 29.9174 57.6775 30.2782 57.1752 30.5181C56.5688 30.8132 55.9007 30.959 55.2265 30.9434C54.4613 30.9625 53.7047 30.7791 53.0332 30.4117C52.4306 30.0749 51.9357 29.5744 51.6055 28.9681C51.2716 28.3504 51.1005 27.6578 51.1084 26.9556V26.6631C51.0944 25.9056 51.2526 25.1547 51.571 24.4672C51.8585 23.8457 52.3203 23.3211 52.9003 22.9571C53.5254 22.5874 54.2427 22.403 54.9686 22.4254C55.6626 22.4046 56.3489 22.5757 56.9519 22.9199C57.4984 23.2468 57.9331 23.7316 58.1988 24.3103C58.4944 24.9796 58.6396 25.7056 58.6241 26.4372L58.6294 27.4235ZM56.3803 25.7061C56.3937 25.318 56.262 24.9388 56.0108 24.6426C55.872 24.5051 55.7051 24.3993 55.5215 24.3323C55.338 24.2653 55.1421 24.2387 54.9473 24.2545C54.758 24.2487 54.5697 24.2853 54.3962 24.3616C54.2228 24.438 54.0687 24.5522 53.9451 24.6958C53.6761 25.0408 53.5094 25.4544 53.4639 25.8895H56.3883L56.3803 25.7061Z" fill="white"/>
<path d="M71.2682 21.6547H67.8918V30.7895H65.5124V21.6547H62.1865V19.7246H71.2602L71.2682 21.6547Z" fill="white"/>
<path d="M76.6755 22.4418C76.7836 22.4547 76.8903 22.4769 76.9946 22.5082L76.9653 24.7255C76.6958 24.6869 76.424 24.6664 76.1518 24.6643C75.3312 24.6643 74.7995 24.9355 74.5567 25.4778V30.7949H72.2623V22.5667H74.4158L74.4849 23.561C74.6651 23.2163 74.9305 22.9235 75.2559 22.7103C75.574 22.5104 75.9436 22.4078 76.3193 22.4152C76.4385 22.4164 76.5575 22.4252 76.6755 22.4418Z" fill="white"/>
<path d="M85.3373 22.5667V30.7896H83.1892L83.1228 29.9388C82.8692 30.2593 82.5442 30.516 82.1737 30.6885C81.7703 30.8703 81.3319 30.9611 80.8896 30.9544C80.5214 30.9755 80.1528 30.9202 79.8069 30.7921C79.461 30.664 79.1454 30.4658 78.8797 30.21C78.3959 29.712 78.1539 28.9419 78.1539 27.8997V22.5826H80.4403V27.9024C80.4268 28.0643 80.4464 28.2273 80.4981 28.3813C80.5497 28.5354 80.6323 28.6773 80.7407 28.7983C80.8535 28.899 80.9851 28.9764 81.1279 29.0262C81.2707 29.0759 81.4219 29.0969 81.5728 29.0881C82.2818 29.0881 82.771 28.8426 83.0404 28.3517V22.5667H85.3373Z" fill="white"/>
<path d="M86.6878 24.9835C86.6853 24.5246 86.8246 24.0762 87.0866 23.6994C87.3779 23.2868 87.7771 22.9622 88.2404 22.7609C88.7928 22.5179 89.3917 22.3991 89.995 22.4127C90.6273 22.4026 91.255 22.5211 91.8401 22.7609C92.3254 22.9543 92.7465 23.2805 93.055 23.7021C93.3387 24.1057 93.4876 24.5886 93.4804 25.0819H91.1861C91.1963 24.9391 91.176 24.7958 91.1264 24.6614C91.0769 24.5271 90.9994 24.4049 90.8989 24.3029C90.642 24.1034 90.3191 24.0085 89.995 24.0371C89.7101 24.0238 89.4291 24.1072 89.1975 24.2737C89.1024 24.3437 89.0255 24.4356 88.9732 24.5415C88.9209 24.6475 88.8948 24.7644 88.897 24.8825C88.8974 24.9999 88.9288 25.1151 88.9881 25.2165C89.0474 25.3178 89.1325 25.4016 89.2347 25.4594C89.593 25.6515 89.9829 25.7775 90.3858 25.8316C90.9509 25.9288 91.5036 26.0875 92.0341 26.3048C92.4504 26.4763 92.8163 26.7508 93.0976 27.1024C93.3753 27.4834 93.5159 27.9472 93.4963 28.4184C93.5001 28.8857 93.3486 29.3411 93.0657 29.7131C92.7476 30.1185 92.3247 30.4292 91.8427 30.6117C91.256 30.8404 90.63 30.9515 90.0003 30.9387C89.3375 30.9553 88.68 30.816 88.0809 30.5319C87.5855 30.2985 87.1608 29.938 86.85 29.4871C86.5791 29.0963 86.4319 28.6332 86.4272 28.1578H88.594C88.5898 28.3274 88.6262 28.4955 88.7002 28.6481C88.7742 28.8007 88.8836 28.9334 89.0193 29.0351C89.3258 29.2359 89.6875 29.3354 90.0535 29.3196C90.3698 29.3397 90.6845 29.2617 90.9548 29.0963C91.0542 29.0307 91.1354 28.9409 91.1908 28.8353C91.2461 28.7298 91.2737 28.6119 91.2711 28.4928C91.2748 28.3471 91.2246 28.2051 91.1302 28.094C90.9899 27.9556 90.8199 27.851 90.6331 27.7883C90.3 27.665 89.9578 27.5681 89.6095 27.4985C87.6617 27.0838 86.6878 26.2454 86.6878 24.9835Z" fill="white"/>
<path d="M99.2363 29.0028V30.7362C98.8009 30.8846 98.343 30.9566 97.8831 30.9489C96.2702 30.9489 95.4638 30.1283 95.4638 28.4871V24.2334H94.302V22.5665H95.4665V20.53H97.7634V22.5665H99.1406V24.2387H97.7581V28.2133C97.7305 28.4511 97.7984 28.6901 97.9469 28.8779C98.1336 29.0156 98.3647 29.0791 98.5956 29.056C98.8104 29.0595 99.025 29.0416 99.2363 29.0028Z" fill="white"/>
<path d="M111.104 20.1925C111.705 20.4801 112.21 20.9352 112.558 21.5032C112.901 22.0801 113.076 22.7411 113.063 23.412C113.077 24.0676 112.903 24.7135 112.561 25.273C112.21 25.8187 111.705 26.2473 111.109 26.5039C110.402 26.8075 109.638 26.9553 108.868 26.9373H106.909V30.7815H104.516V19.7166H108.863C109.637 19.6974 110.405 19.8604 111.104 20.1925ZM110.216 24.5818C110.366 24.4302 110.483 24.2491 110.559 24.05C110.635 23.8509 110.668 23.6381 110.657 23.4253C110.661 23.1179 110.595 22.8136 110.466 22.5347C110.338 22.2648 110.131 22.0397 109.873 21.8887C109.567 21.7177 109.221 21.634 108.871 21.6467H106.911V25.0045H108.871C109.359 25.0469 109.844 24.895 110.221 24.5818H110.216Z" fill="white"/>
<path d="M118.487 22.4335C118.597 22.4447 118.707 22.4651 118.814 22.4946L118.782 24.7145C118.512 24.6753 118.241 24.6549 117.968 24.6534C117.148 24.6534 116.616 24.9246 116.373 25.4669V30.784H114.079V22.5584H116.238L116.307 23.5527C116.486 23.2077 116.752 22.9148 117.078 22.702C117.396 22.5018 117.765 22.3992 118.141 22.4069C118.257 22.4087 118.372 22.4176 118.487 22.4335Z" fill="white"/>
<path d="M119.808 24.4359C120.097 23.8208 120.559 23.3033 121.137 22.9471C121.785 22.5932 122.51 22.4077 123.248 22.4077C123.986 22.4077 124.712 22.5932 125.359 22.9471C125.944 23.3009 126.411 23.8186 126.704 24.4359C127.02 25.1112 127.177 25.8495 127.164 26.5947V26.7489C127.177 27.4932 127.02 28.2307 126.704 28.905C126.415 29.5187 125.953 30.035 125.375 30.3911C124.728 30.7453 124.002 30.9309 123.264 30.9309C122.526 30.9309 121.8 30.7453 121.153 30.3911C120.569 30.038 120.101 29.5213 119.808 28.905C119.491 28.2311 119.333 27.4935 119.345 26.7489V26.5894C119.334 25.8457 119.492 25.1092 119.808 24.4359ZM122.031 28.453C122.158 28.6631 122.341 28.8337 122.56 28.9459C122.779 29.0581 123.024 29.1074 123.269 29.0884C123.512 29.1041 123.754 29.0529 123.97 28.9404C124.186 28.8279 124.366 28.6584 124.492 28.4504C124.775 27.9294 124.909 27.3409 124.88 26.7489V26.5894C124.908 25.9975 124.774 25.4093 124.492 24.8879C124.366 24.6758 124.183 24.5031 123.965 24.389C123.746 24.2749 123.5 24.2239 123.253 24.2419C123.01 24.2272 122.767 24.28 122.551 24.3944C122.335 24.5089 122.155 24.6805 122.031 24.8905C121.751 25.409 121.617 25.9931 121.642 26.5814V26.7489C121.613 27.3417 121.747 27.9312 122.031 28.453Z" fill="white"/>
<path d="M130.777 30.6165C130.777 31.5594 130.524 32.2843 130.017 32.7912C129.51 33.2981 128.801 33.5515 127.89 33.5515C127.511 33.5552 127.134 33.5114 126.766 33.4212V31.6028C126.996 31.6477 127.23 31.6708 127.465 31.6719C128.144 31.6719 128.483 31.3174 128.483 30.6085V22.5584H130.777V30.6165ZM130.512 19.7031C130.628 19.8109 130.72 19.9424 130.781 20.0887C130.842 20.235 130.87 20.3927 130.865 20.5512C130.87 20.7092 130.841 20.8663 130.78 21.0121C130.719 21.1579 130.627 21.289 130.512 21.3966C130.249 21.6122 129.92 21.7301 129.581 21.7301C129.242 21.7301 128.913 21.6122 128.651 21.3966C128.534 21.2887 128.443 21.1572 128.382 21.0109C128.321 20.8646 128.292 20.7069 128.297 20.5485C128.292 20.3901 128.321 20.2324 128.382 20.0861C128.443 19.9398 128.534 19.8083 128.651 19.7004C128.913 19.4848 129.242 19.3669 129.581 19.3669C129.92 19.3669 130.249 19.4848 130.512 19.7004V19.7031Z" fill="white"/>
<path d="M139.519 27.4156H134.321C134.385 27.8844 134.61 28.3162 134.959 28.6359C135.322 28.9465 135.79 29.1079 136.267 29.0878C136.645 29.0922 137.019 29.0161 137.365 28.8645C137.702 28.7128 137.995 28.4809 138.221 28.1892L139.322 29.4574C138.994 29.907 138.559 30.2678 138.056 30.5075C137.45 30.8029 136.782 30.9488 136.108 30.9329C135.343 30.9518 134.586 30.7684 133.914 30.4012C133.312 30.0644 132.817 29.5639 132.487 28.9576C132.153 28.3398 131.982 27.6472 131.99 26.945V26.6552C131.976 25.8977 132.134 25.1469 132.452 24.4593C132.74 23.8388 133.202 23.3152 133.782 22.9519C134.407 22.5829 135.124 22.3985 135.85 22.4202C136.544 22.3999 137.23 22.571 137.833 22.9147C138.381 23.2454 138.816 23.7349 139.08 24.3184C139.376 24.9876 139.521 25.7137 139.505 26.4452L139.519 27.4156ZM137.272 25.6849C137.285 25.2968 137.153 24.9179 136.903 24.6215C136.764 24.4838 136.597 24.3778 136.414 24.3108C136.23 24.2438 136.034 24.2174 135.839 24.2333C135.647 24.2235 135.456 24.2574 135.279 24.3325C135.102 24.4075 134.945 24.5218 134.818 24.6666C134.548 25.0113 134.381 25.4249 134.335 25.8603H137.259L137.272 25.6849Z" fill="white"/>
<path d="M147.723 27.9025C147.729 28.4581 147.568 29.0027 147.26 29.4657C146.953 29.9296 146.527 30.3024 146.027 30.5451C145.489 30.8079 144.897 30.9408 144.299 30.9332C143.563 30.9593 142.835 30.7748 142.201 30.4015C141.633 30.0482 141.184 29.5323 140.912 28.9207C140.615 28.2458 140.469 27.5149 140.481 26.7779V26.5812C140.469 25.8442 140.616 25.1133 140.912 24.4384C141.184 23.8221 141.637 23.3024 142.209 22.9469C142.84 22.5739 143.564 22.3894 144.296 22.4152C144.915 22.4027 145.528 22.5367 146.085 22.806C146.591 23.0539 147.012 23.445 147.298 23.9306C147.596 24.4566 147.746 25.054 147.731 25.6587H145.58C145.59 25.292 145.463 24.9348 145.224 24.6564C145.101 24.5227 144.95 24.4178 144.782 24.3493C144.614 24.2808 144.432 24.2504 144.251 24.2603C144.017 24.2361 143.782 24.283 143.576 24.395C143.369 24.507 143.201 24.6787 143.094 24.8877C142.864 25.4206 142.758 25.9986 142.783 26.5785V26.7753C142.757 27.3584 142.862 27.9401 143.092 28.4767C143.299 28.8862 143.685 29.0935 144.259 29.0935C144.604 29.1108 144.943 28.9969 145.208 28.7745C145.328 28.6651 145.423 28.5309 145.485 28.3812C145.548 28.2316 145.578 28.07 145.572 27.9078L147.723 27.9025Z" fill="white"/>
<path d="M153.5 28.9945V30.72C153.065 30.8684 152.607 30.9403 152.147 30.9326C150.536 30.9326 149.73 30.112 149.73 28.4708V24.2171H148.568V22.5582H149.73V20.5217H152.024V22.5582H153.407V24.2304H152.024V28.205C151.997 28.4428 152.065 28.6818 152.213 28.8696C152.399 29.0069 152.629 29.0704 152.859 29.0477C153.074 29.0505 153.289 29.0327 153.5 28.9945Z" fill="white"/>
</g>
</g>
<defs>
<clipPath id="clip0_1385_416083">
<rect width="153" height="48" fill="white" transform="translate(0.5 0.932617)"/>
</clipPath>
<clipPath id="clip1_1385_416083">
<rect width="151.663" height="23.3953" fill="white" transform="translate(1.8374 13.7212)"/>
</clipPath>
</defs>
</svg>
